<svg width="88" height="88" viewBox="0 0 88 88" fill="none" xmlns="http://www.w3.org/2000/svg">
<path d="M0.000427246 62.3342C0.000427246 65.086 4.63503 67.7251 12.8847 69.6709C21.1343 71.6167 32.3232 72.7099 43.99 72.7099C55.6567 72.7099 66.8456 71.6167 75.0953 69.6709C83.3449 67.7251 87.9795 65.086 87.9795 62.3342C87.9795 59.5824 83.3449 56.9433 75.0953 54.9975C66.8456 53.0516 55.6567 51.9585 43.99 51.9585C32.3232 51.9585 21.1343 53.0516 12.8847 54.9975C4.63503 56.9433 0.000427246 59.5824 0.000427246 62.3342Z" fill="#F5F5F5"/>
<path d="M75.3333 34.0529V46.266H12.6478V34.0529L27.7024 17.6943C28.1338 17.1977 28.6669 16.7995 29.2655 16.5266C29.8641 16.2538 30.5143 16.1127 31.1721 16.1128H56.8118C57.4697 16.1127 58.1199 16.2538 58.7185 16.5267C59.3171 16.7995 59.8501 17.1977 60.2816 17.6943L75.3333 34.0529Z" fill="white"/>
<path d="M75.3338 47.1314H12.6464C12.5331 47.1314 12.4209 47.1091 12.3163 47.0657C12.2116 47.0224 12.1165 46.9<svg width="88" height="88" viewBox="0 0 88 88" fill="none" xmlns="http://www.w49<path d="M0.000427246 62.3342C0.000427246 65.086 4.63503 67.7251 12.8847 69.6709C21.1343 71.6164<path d="M75.3333 34.0529V46.266H12.6478V34.0529L27.7024 17.6943C28.1338 17.1977 28.6669 16.7995 29.2655 16.5266C29.8641 16.2538 30.5143 16.1127 31.1721 16.1128H56.8118C57.4697 16.1127 58.1199 16.2538 58.7185 16.5267C59.3171 16.7995 59.8501 17.1977 60.2816 17.6943L75.3333 34.0529Z" fill="white"/>
<path d="M75.3338 47.1314H12.6464C12.5331 47.1314 12.4209 47.1091 12.3163 47.0657C12.2116 47.0224 12.1165 46.9<svg width="88" height="88" v74<path d="M75.3338 47.1314H12.6464C12.5331 47.1314 12.4209 47.1091 12.3163 47.0657C12.2116 47.0224 12.1165 46.9<svg width="88" height="88" viewBox="0 0 88 88" fill="none" xmlns="http://www.w49<path d="M0.000427246 62.3342C0.000427246 65.086 4.63503 67.7251 12.8847 69.6709C21.1343 71.6164<path d="5.<path d="M75.3338 47.1314H12.6464C12.5331 47.1314 12.4209 47.1091 12.3163 47.0657C12.2116 47.0224 12.1165 46.9<svg width="88" height="88" v74<path d="M75.3338 47.1314H12.6464C12.5331 47.1314 12.4209 47.1091 12.3163 47.0657C12.2116 47.0224 12.1165 46.9<svg width="88" height="88" viewBox="0 0 88 88" fill="none" xmlns="http://www.w49<path d="M0.000427246 62.3342C0.000427246 65.086 4.63503 67.7251 12.8847 69.6709C21.1343 71.6164<path d="5.<path d="M75.3338 47.1314H12.6464C12.5331 47.1314 12.4209 47.1091 12.3163 47.0657C12.2116 47.0224 12.1165 46.9<svg width="88" height="88" v74<pa547H75.3347V60.1022C75.3345 60.5848 75.2393 61.0626 75.0544 61.5084C74.8696 61.9542 74.5987 62.3592 74.2574 62.7003C73.916 63.0414 73.5108 63.3119 73.0648 63.4964C72.6189 63.6809 72.141 63.7758 71.6584 63.7756Z" fill="#FAFAFA"/>
<path d="M71.6589 64.6391H16.3208C15.1173 64.6378 13.9634 64.1592 13.1123 63.3081C12.2613 62.4571 11.7826 61.3032 11.7814 60.0997V34.0531C11.7814 33.9398 11.8037 33.8277 11.847 33.723C11.8904 33.6183 11.9539 33.5232 12.034 33.4431C12.1141 33.363 12.2092 33.2995 12.3139 33.2561C12.4186 33.2128 12.5307 33.1905 12.644 33.1905H26.5163C27.412 33.1911 28.2883 33.451 29.0395 33.9388C29.7907 34.4266 30.3846 35.1214 30.7495 35.9394L32.6075 40.1122C32.8698 40.7006 33.297 41.2005 33.8373 41.5514C34.3776 41.9023 35.0079 42.0892 35.6522 42.0896H52.2475C52.92 42.0926 53.5775 41.8908 54.1324 41.5109C54.6873 41.131 55.1134 40.5912 55.354 39.9632L56.8396 36.146C57.1747 35.2732 57.7674 34.523 58.5391 33.9951C59.3107 33.4672 60.2247 33.1865 61.1596 33.1905H75.3333C75.4466 33.1905 75.5588 33.2128 75.6634 3<path d="M71.6589 64.6391H16.3208C15.1173 64.6378 13.9634 64.1592 13.1123 63.3081C12.2613 62.4571 11.7826 61.3032 11.7814 60.0997V34.0531C11.7814 33.9398 11.8037 33.8277 11.847 33.723C11.8904 33.6183 11.9539 33.5232 12.034 339 64.6372 71.6589 64.6391ZM13.5105 34.9182V60.1011C13.5114 60.8461 13.8078 61.5604 14.3346 62.0872C14.8615 62.6139 15.5758 62.9102 16.3208 62.9109H71.6589C72.4039 62.9102 73.1182 62.6139 73.6451 62.0872C74.1719 61.5604 74.4683 60.8461 74.4692 60.1011V34.9182H61.1601C60.574 34.9155 60.0011 35.0914 59.5175 35.4224C59.0339 35.7534 58.6625 36.2237 58.4528 36.7709L56.9671 40.5886C56.6012 41.5419 55.9538 42.3614 55.1111 42.9381C54.2683 43.5148 53.2701 43.8214 52.2489 43.8173H35.6546C34.6762 43.8164 33.719 43.5324 32.8984 42.9995C32.0779 42.4667 31.4291 41.7077 31.0303 40.8143L29.1723 36.6415C28.9439 36.1283 28.5718 35.6923 28.1009 35.3861C27.6299 35.0799 27.0804 34.9167 26.5187 34.9162L13.5105 34.9182Z" fill="#DFDFDF"/>
</svg>
