<svg width="28" height="28" viewBox="0 0 28 28" fill="none" xmlns="http://www.w3.org/2000/svg">
<mask id="path-1-inside-1_4361_48436" fill="white">
<path fill-rule="evenodd" clip-rule="evenodd" d="M24.8376 14.0001C24.8376 19.9861 19.9849 24.8388 13.9989 24.8388C8.01281 24.8388 3.16016 19.9861 3.16016 14.0001C3.16016 8.014 8.01281 3.16135 13.9989 3.16135C19.9849 3.16135 24.8376 8.014 24.8376 14.0001ZM18.9263 14.4331C19.2596 14.2407 19.2596 13.7595 18.9263 13.5671L11.9101 9.51633C11.5768 9.32388 11.1601 9.56444 11.1601 9.94934L11.1601 18.0509C11.1601 18.4358 11.5768 18.6763 11.9101 18.4839L18.9263 14.4331Z"/>
</mask>
<path fill-rule="evenodd" clip-rule="evenodd" d="M24.8376 14.0001C24.8376 19.9861 19.9849 24.8388 13.9989 24.8388C8.01281 24.8388 3.16016 19.9861 3.16016 14.0001C3.16016 8.014 8.01281 3.16135 13.9989 3.16135C19.9849 3.16135 24.8376 8.014 24.8376 14.0001ZM18.9263 14.4331C19.2596 14.2407 19.2596 13.7595 18.9263 13.5671L11.9101 9.51633C11.5768 9.32388 11.1601 9.56444 11.1601 9.94934L11.1601 18.0509C11.1601 18.4358 11.5768 18.6763 11.9101 18.4839L18.9263 14.4331Z" fill="#1C2024"/>
<path d="M18.9263 13.5671L19.8037 12.0474L19.8037 12.0474L18.9263 13.5671ZM18.9263 14.4331L18.0489 12.9134L18.0489 12.9134L18.9263 14.4331ZM11.9101 9.51633L11.0327 11.0361V11.0361L11.9101 9.51633ZM11.1601 9.94934H12.915V9.94934H11.1601ZM11.1601 18.0509H9.40531V18.0509H11.1601ZM11.9101 18.4839L12.7876 20.0036H12.7876L11.9101 18.4839ZM13.9989 24.8388V26.5936C20.9541 26.5936 26.5924 20.9553 26.5924 14.0001H24.8376H23.0827C23.0827 19.0169 19.0157 23.0839 13.9989 23.0839V24.8388ZM3.16016 14.0001H1.40532C1.40532 20.9553 7.04364 26.5936 13.9989 26.5936V24.8388V23.0839C8.98198 23.0839 4.91499 19.0169 4.91499 14.0001H3.16016ZM13.9989 3.16135V1.40651C7.04364 1.40651 1.40532 7.04483 1.40532 14.0001H3.16016H4.91499C4.91499 8.98317 8.98198 4.91618 13.9989 4.91618V3.16135ZM24.8376 14.0001H26.5924C26.5924 7.04483 20.9541 1.40651 13.9989 1.40651V3.16135V4.91618C19.0157 4.91618 23.0827 8.98317 23.0827 14.0001H24.8376ZM18.9263 13.5671L18.0489 15.0868C17.2123 14.6038 17.2123 13.3964 18.0489 12.9134L18.9263 14.4331L19.8037 15.9529C21.3069 15.085 21.3069 12.9152 19.8037 12.0474L18.9263 13.5671ZM11.9101 9.51633L11.0327 11.0361L18.0489 15.0868L18.9263 13.5671L19.8037 12.0474L12.7876 7.99659L11.9101 9.51633ZM11.1601 9.94934H12.915C12.915 10.9153 11.8693 11.519 11.0327 11.0361L11.9101 9.51633L12.7876 7.99659C11.2843 7.12871 9.40531 8.21356 9.40531 9.94934H11.1601ZM11.1601 18.0509H12.915V9.94934H11.1601H9.40531L9.40531 18.0509H11.1601ZM11.9101 18.4839L11.0327 16.9641C11.8693 16.4812 12.915 17.0849 12.915 18.0509H11.1601H9.40531C9.40531 19.7866 11.2843 20.8715 12.7876 20.0036L11.9101 18.4839ZM18.9263 14.4331L18.0489 12.9134L11.0327 16.9641L11.9101 18.4839L12.7876 20.0036L19.8037 15.9529L18.9263 14.4331Z" fill="#1C2024" mask="url(#path-1-inside-1_4361_48436)"/>
<path d="M13.9989 24.8388C19.9849 24.8388 24.8376 19.9861 24.8376 14.0001C24.8376 8.014 19.9849 3.16135 13.9989 3.16135C8.01281 3.16135 3.16016 8.014 3.16016 14.0001C3.16016 19.9861 8.01281 24.8388 13.9989 24.8388Z" stroke="#1C2024" stroke-width="1.49333" stroke-linecap="round" stroke-linejoin="round"/>
</svg>
