<svg width="28" height="28" viewBox="0 0 28 28" fill="none" xmlns="http://www.w3.org/2000/svg">
<path d="M22.168 4.66666H5.83464C5.1903 4.66666 4.66797 5.18899 4.66797 5.83332V8.16666C4.66797 8.81099 5.1903 9.33332 5.83464 9.33332H22.168C22.8123 9.33332 23.3346 8.81099 23.3346 8.16666V5.83332C23.3346 5.18899 22.8123 4.66666 22.168 4.66666Z" stroke="#60646C" stroke-width="1.49" stroke-linecap="round" stroke-linejoin="round"/>
<path d="M10.5013 14H5.83464C5.1903 14 4.66797 14.5223 4.66797 15.1667V22.1667C4.66797 22.811 5.1903 23.3333 5.83464 23.3333H10.5013C11.1456 23.3333 11.668 22.811 11.668 22.1667V15.1667C11.668 14.5223 11.1456 14 10.5013 14Z" stroke="#60646C" stroke-width="1.49" stroke-linecap="round" stroke-linejoin="round"/>
<path d="M16.332 14H23.332" stroke="#60646C" stroke-width="1.49" stroke-linecap="round" stroke-linejoin="round"/>
<path d="M16.332 18.6667H23.332" stroke="#60646C" stroke-width="1.49" stroke-linecap="round" stroke-linejoin="round"/>
<path d="M16.332 23.3333H23.332" stroke="#60646C" stroke-width="1.49" stroke-linecap="round" stroke-linejoin="round"/>
</svg>
