<svg width="19" height="22" viewBox="0 0 19 22" fill="none" xmlns="http://www.w3.org/2000/svg">
<path d="M11.6738 12.7305H7.32617C3.687 12.7307 0.745117 15.6443 0.745117 19.1992V19.627C0.745117 19.9042 0.84106 20.0808 1.04688 20.2393C1.29137 20.4274 1.70498 20.5944 2.33105 20.7158C3.5846 20.9589 5.33226 20.9619 7.32617 20.9619H11.6738C13.7503 20.9619 15.4958 20.9583 16.7275 20.7158C17.3418 20.5949 17.7369 20.4302 17.9668 20.2471C18.1582 20.0946 18.2549 19.9177 18.2549 19.627V19.1992C18.2549 15.6433 15.3131 12.7305 11.6738 12.7305ZM9.71777 0.745117C6.91952 0.745206 4.66017 2.9865 4.66016 5.71777C4.66016 8.44893 6.91938 10.6894 9.71777 10.6895C12.5157 10.6895 14.7754 8.44796 14.7754 5.71777C14.7754 2.98744 12.5159 0.745117 9.71777 0.745117Z" stroke="#60646C" stroke-width="1.49"/>
</svg>
