<svg width="28" height="28" viewBox="0 0 28 28" fill="none" xmlns="http://www.w3.org/2000/svg">
<path d="M13.9053 2.66797C13.9639 2.63382 14.0361 2.63382 14.0947 2.66797L23.6611 8.24805C23.719 8.2818 23.7549 8.34415 23.7549 8.41113V19.5889C23.7549 19.6559 23.719 19.7182 23.6611 19.752L14.0947 25.332C14.0361 25.3662 13.9639 25.3662 13.9053 25.332L4.33887 19.752C4.28101 19.7182 4.24512 19.6558 4.24512 19.5889V8.41113C4.24512 8.34415 4.28101 8.2818 4.33887 8.24805L13.9053 2.66797Z" stroke="#60646C" stroke-width="1.49"/>
<path d="M22.6563 8.44303C23.016 8.24379 23.4695 8.3734 23.669 8.73307C23.8682 9.09289 23.7377 9.54634 23.3779 9.74576C21.6325 10.7132 20.1068 11.5637 18.5801 12.4137C17.0633 13.2582 15.5452 14.1028 13.8125 15.0631V24.3102C13.8125 24.7217 13.4788 25.0553 13.0674 25.0553C12.656 25.0552 12.3223 24.7216 12.3223 24.3102V14.4225L7.04103 11.3434C6.68599 11.136 6.56634 10.6791 6.77345 10.3239C6.98081 9.96862 7.43763 9.84903 7.79298 10.0563L13.584 13.4333C13.5983 13.4416 13.6115 13.4515 13.625 13.4606C15.1372 12.6218 16.4962 11.8682 17.8545 11.112C19.3813 10.2619 20.9093 9.41129 22.6563 8.44303ZM8.43947 5.54069C8.64694 5.18573 9.10378 5.0659 9.459 5.27311L13.6924 7.74283C14.0472 7.95035 14.1671 8.40721 13.96 8.76237C13.7526 9.11733 13.2957 9.237 12.9404 9.02994L8.70704 6.56022C8.35201 6.35277 8.23224 5.89593 8.43947 5.54069Z" fill="#60646C"/>
</svg>
